<mxfile host="app.diagrams.net" modified="2023-06-25T09:33:29.353Z" agent="Mozilla/5.0 (Windows NT 10.0; Win64; x64) AppleWebKit/537.36 (KHTML, like Gecko) Chrome/114.0.0.0 Safari/537.36" etag="q6PwRXl0q-SqWz-_KlCP" version="21.1.7" type="github">
  <diagram name="第 1 页" id="lJCsAUCSYp1R-1SvypAb">
    <mxGraphModel dx="1434" dy="756" grid="1" gridSize="10" guides="1" tooltips="1" connect="1" arrows="1" fold="1" page="1" pageScale="1" pageWidth="827" pageHeight="1169" math="0" shadow="0">
      <root>
        <mxCell id="0" />
        <mxCell id="1" parent="0" />
        <mxCell id="AAC85__fpx8Xgpk7sOfd-5" style="edgeStyle=orthogonalEdgeStyle;rounded=0;orthogonalLoop=1;jettySize=auto;html=1;exitX=1;exitY=0.5;exitDx=0;exitDy=0;entryX=0;entryY=0.5;entryDx=0;entryDy=0;fontSize=13;" edge="1" parent="1" source="AAC85__fpx8Xgpk7sOfd-1" target="AAC85__fpx8Xgpk7sOfd-4">
          <mxGeometry relative="1" as="geometry" />
        </mxCell>
        <mxCell id="AAC85__fpx8Xgpk7sOfd-1" value="媒资:A&amp;nbsp; 终端:pcweb_gj&amp;nbsp; &amp;nbsp;版权:M &lt;br&gt;授权时间:xx--xx&amp;nbsp; &amp;nbsp;播放区域:cn" style="rounded=0;whiteSpace=wrap;html=1;fillColor=#d5e8d4;strokeColor=#82b366;fontSize=13;" vertex="1" parent="1">
          <mxGeometry x="100" y="150" width="270" height="50" as="geometry" />
        </mxCell>
        <mxCell id="AAC85__fpx8Xgpk7sOfd-6" style="edgeStyle=orthogonalEdgeStyle;rounded=0;orthogonalLoop=1;jettySize=auto;html=1;entryX=0;entryY=0.5;entryDx=0;entryDy=0;fontSize=13;" edge="1" parent="1" source="AAC85__fpx8Xgpk7sOfd-2" target="AAC85__fpx8Xgpk7sOfd-4">
          <mxGeometry relative="1" as="geometry" />
        </mxCell>
        <mxCell id="AAC85__fpx8Xgpk7sOfd-2" value="。。。。。。" style="rounded=0;whiteSpace=wrap;html=1;fillColor=#d5e8d4;strokeColor=#82b366;fontSize=13;" vertex="1" parent="1">
          <mxGeometry x="100" y="240" width="270" height="50" as="geometry" />
        </mxCell>
        <mxCell id="AAC85__fpx8Xgpk7sOfd-7" style="edgeStyle=orthogonalEdgeStyle;rounded=0;orthogonalLoop=1;jettySize=auto;html=1;exitX=1;exitY=0.5;exitDx=0;exitDy=0;entryX=0;entryY=0.5;entryDx=0;entryDy=0;fontSize=13;" edge="1" parent="1" source="AAC85__fpx8Xgpk7sOfd-3" target="AAC85__fpx8Xgpk7sOfd-4">
          <mxGeometry relative="1" as="geometry" />
        </mxCell>
        <mxCell id="AAC85__fpx8Xgpk7sOfd-3" value="媒资:A&amp;nbsp; 终端:pcweb_gj&amp;nbsp; &amp;nbsp;版权:N&lt;br style=&quot;border-color: var(--border-color);&quot;&gt;授权时间:xx--xx&amp;nbsp; &amp;nbsp;播放区域:cn" style="rounded=0;whiteSpace=wrap;html=1;fillColor=#d5e8d4;strokeColor=#82b366;fontSize=13;" vertex="1" parent="1">
          <mxGeometry x="100" y="330" width="270" height="50" as="geometry" />
        </mxCell>
        <mxCell id="AAC85__fpx8Xgpk7sOfd-16" style="edgeStyle=orthogonalEdgeStyle;rounded=0;orthogonalLoop=1;jettySize=auto;html=1;exitX=1;exitY=0.5;exitDx=0;exitDy=0;entryX=0;entryY=0.5;entryDx=0;entryDy=0;fontSize=13;" edge="1" parent="1" source="AAC85__fpx8Xgpk7sOfd-4" target="AAC85__fpx8Xgpk7sOfd-15">
          <mxGeometry relative="1" as="geometry" />
        </mxCell>
        <mxCell id="AAC85__fpx8Xgpk7sOfd-4" value="媒资:A&amp;nbsp; &amp;nbsp;终端:pcweb_gj&amp;nbsp; &amp;nbsp;授权时间:xx--xx 播放区域:cnlus" style="rounded=0;whiteSpace=wrap;html=1;fillColor=#60a917;fontColor=#ffffff;strokeColor=#2D7600;fontSize=13;" vertex="1" parent="1">
          <mxGeometry x="470" y="240" width="270" height="50" as="geometry" />
        </mxCell>
        <mxCell id="AAC85__fpx8Xgpk7sOfd-8" style="edgeStyle=orthogonalEdgeStyle;rounded=0;orthogonalLoop=1;jettySize=auto;html=1;exitX=1;exitY=0.5;exitDx=0;exitDy=0;entryX=0;entryY=0.5;entryDx=0;entryDy=0;fontSize=13;" edge="1" parent="1" source="AAC85__fpx8Xgpk7sOfd-9" target="AAC85__fpx8Xgpk7sOfd-14">
          <mxGeometry relative="1" as="geometry" />
        </mxCell>
        <mxCell id="AAC85__fpx8Xgpk7sOfd-9" value="媒资:A&amp;nbsp; MPP播控控略+国际 播放区域:us" style="rounded=0;whiteSpace=wrap;html=1;fillColor=#dae8fc;strokeColor=#6c8ebf;fontSize=13;" vertex="1" parent="1">
          <mxGeometry x="100" y="440" width="270" height="50" as="geometry" />
        </mxCell>
        <mxCell id="AAC85__fpx8Xgpk7sOfd-10" style="edgeStyle=orthogonalEdgeStyle;rounded=0;orthogonalLoop=1;jettySize=auto;html=1;entryX=0;entryY=0.5;entryDx=0;entryDy=0;fontSize=13;" edge="1" parent="1" source="AAC85__fpx8Xgpk7sOfd-11" target="AAC85__fpx8Xgpk7sOfd-14">
          <mxGeometry relative="1" as="geometry" />
        </mxCell>
        <mxCell id="AAC85__fpx8Xgpk7sOfd-11" value="。。。。。。" style="rounded=0;whiteSpace=wrap;html=1;fillColor=#dae8fc;strokeColor=#6c8ebf;fontSize=13;" vertex="1" parent="1">
          <mxGeometry x="100" y="530" width="270" height="50" as="geometry" />
        </mxCell>
        <mxCell id="AAC85__fpx8Xgpk7sOfd-12" style="edgeStyle=orthogonalEdgeStyle;rounded=0;orthogonalLoop=1;jettySize=auto;html=1;exitX=1;exitY=0.5;exitDx=0;exitDy=0;entryX=0;entryY=0.5;entryDx=0;entryDy=0;fontSize=13;" edge="1" parent="1" source="AAC85__fpx8Xgpk7sOfd-13" target="AAC85__fpx8Xgpk7sOfd-14">
          <mxGeometry relative="1" as="geometry" />
        </mxCell>
        <mxCell id="AAC85__fpx8Xgpk7sOfd-13" value="媒资A&amp;nbsp; MPP播控控略+国际 播放区域:kr" style="rounded=0;whiteSpace=wrap;html=1;fillColor=#dae8fc;strokeColor=#6c8ebf;fontSize=13;" vertex="1" parent="1">
          <mxGeometry x="100" y="620" width="270" height="50" as="geometry" />
        </mxCell>
        <mxCell id="AAC85__fpx8Xgpk7sOfd-18" style="edgeStyle=orthogonalEdgeStyle;rounded=0;orthogonalLoop=1;jettySize=auto;html=1;exitX=1;exitY=0.5;exitDx=0;exitDy=0;entryX=0;entryY=0.5;entryDx=0;entryDy=0;fontSize=13;" edge="1" parent="1" source="AAC85__fpx8Xgpk7sOfd-14" target="AAC85__fpx8Xgpk7sOfd-15">
          <mxGeometry relative="1" as="geometry" />
        </mxCell>
        <mxCell id="AAC85__fpx8Xgpk7sOfd-14" value="媒资:A&amp;nbsp; &amp;nbsp;MPP播控策略&amp;nbsp; &amp;nbsp;播放区域:uslkr" style="rounded=0;whiteSpace=wrap;html=1;fillColor=#1ba1e2;fontColor=#ffffff;strokeColor=#006EAF;fontSize=13;" vertex="1" parent="1">
          <mxGeometry x="470" y="530" width="270" height="50" as="geometry" />
        </mxCell>
        <mxCell id="AAC85__fpx8Xgpk7sOfd-15" value="媒资:A&amp;nbsp; &amp;nbsp;平台:pcweb_gj&amp;nbsp; &amp;nbsp;授权时间:xx--xx &lt;br&gt;播放区域:us" style="rounded=0;whiteSpace=wrap;html=1;fillColor=#6a00ff;fontColor=#ffffff;strokeColor=#3700CC;fontSize=13;" vertex="1" parent="1">
          <mxGeometry x="860" y="390" width="270" height="50" as="geometry" />
        </mxCell>
      </root>
    </mxGraphModel>
  </diagram>
</mxfile>
